<svg xmlns="http://www.w3.org/2000/svg" viewBox="0 0 500 500"><g id="freepik--background-simple--inject-21"><path d="M144.4,157.64c79.19.81,125.32-145.89,224.37-67.12,78.64,62.55-12.14,204-63,245.59C240.89,389.26,127.7,371.58,69.48,298.3,41.07,262.53,28.11,229,41.05,190.76,66,117.11,120.33,157.39,144.4,157.64Z" style="fill:#019FC6"></path><path d="M144.4,157.64c79.19.81,125.32-145.89,224.37-67.12,78.64,62.55-12.14,204-63,245.59C240.89,389.26,127.7,371.58,69.48,298.3,41.07,262.53,28.11,229,41.05,190.76,66,117.11,120.33,157.39,144.4,157.64Z" style="fill:#fff;opacity:0.9"></path></g><g id="freepik--Shadow--inject-21"><ellipse id="freepik--path--inject-21" cx="250" cy="416.24" rx="193.89" ry="11.32" style="fill:#f5f5f5"></ellipse></g><g id="freepik--pill-box--inject-21"><rect x="180" y="193.89" width="185.67" height="222.35" rx="31.34" style="fill:#019FC6"></rect><rect x="214.44" y="179.67" width="116.78" height="35" style="fill:#019FC6"></rect><polygon points="331.22 185 214.44 188.45 214.44 179.67 331.22 179.67 331.22 185" style="fill:#263238;opacity:0.30000000000000004"></polygon><rect x="207" y="144.84" width="131.67" height="36.94" rx="2.81" style="fill:#019FC6"></rect><rect x="207" y="144.84" width="131.67" height="36.94" rx="2.81" style="fill:#fff;opacity:0.6000000000000001"></rect><path d="M247.5,244.56H365.67a0,0,0,0,1,0,0V366.11a0,0,0,0,1,0,0H247.5a16.17,16.17,0,0,1-16.17-16.17V260.72A16.17,16.17,0,0,1,247.5,244.56Z" style="fill:#fff;opacity:0.9"></path><path d="M196.17,244.56h13.5a0,0,0,0,1,0,0V366.11a0,0,0,0,1,0,0h-13.5A16.17,16.17,0,0,1,180,349.94V260.72A16.17,16.17,0,0,1,196.17,244.56Z" transform="translate(389.67 610.67) rotate(180)" style="fill:#fff;opacity:0.9"></path></g><g id="freepik--character-1--inject-21"><path d="M74.44,274.44l-4,.7c-3.66,2.53-.14,7.86-.14,7.86l.87,3.38a2.15,2.15,0,0,0,2.43,1.67l2.78-.46a2.58,2.58,0,0,0,2-2.87l-.36-3.07a6.44,6.44,0,0,0-.82-2.47Z" style="fill:#ffc3bd"></path><path d="M94.18,223l-3.85,6.88L86.5,236.8l-3.69,6.94-1.75,3.46-.84,1.71-.21.43-.1.21c0,.1,0,0,0,.06h-.06l-.1,0s0,0,0,.1v5.13c0,2.74,0,5.48,0,8.22l-.16,8.21c-.1,2.74-.17,5.48-.32,8.22l-12.52.6c-.47-2.67-.86-5.34-1.27-8l-1.11-8c-.34-2.67-.69-5.34-1-8l-.46-4-.12-1a18.12,18.12,0,0,1,.38-5.91,19,19,0,0,1,.58-1.91l.43-1.18.76-2c.52-1.33,1.06-2.65,1.6-4,1.09-2.61,2.22-5.17,3.41-7.69,2.35-5.08,4.78-10,7.51-14.92Z" style="fill:#019FC6"></path><g style="opacity:0.2"><path d="M94.18,223l-3.85,6.88L86.5,236.8l-3.69,6.94-1.75,3.46-.84,1.71-.21.43-.1.21c0,.1,0,0,0,.06h-.06l-.1,0s0,0,0,.1v5.13c0,2.74,0,5.48,0,8.22l-.16,8.21c-.1,2.74-.17,5.48-.32,8.22l-12.52.6c-.47-2.67-.86-5.34-1.27-8l-1.11-8c-.34-2.67-.69-5.34-1-8l-.46-4-.12-1a18.12,18.12,0,0,1,.38-5.91,19,19,0,0,1,.58-1.91l.43-1.18.76-2c.52-1.33,1.06-2.65,1.6-4,1.09-2.61,2.22-5.17,3.41-7.69,2.35-5.08,4.78-10,7.51-14.92Z" style="fill:#fff"></path></g><path d="M158.63,204.33c2.16-17.42,4-29.76,14.51-29.76,7.83,0,15.84,15.6,14.16,33.08-1.61,16.72-11.29,29.18-21.37,30.15l-6.15,171.52a7.25,7.25,0,0,1-7.13,6.78H148.5a6,6,0,0,1-6.1-6.78l17.79-174.88C156.07,229.07,157.09,216.8,158.63,204.33Z" style="fill:#019FC6"></path><path d="M158.63,204.33c2.16-17.42,4-29.76,14.51-29.76,7.83,0,15.84,15.6,14.16,33.08-1.61,16.72-11.29,29.18-21.37,30.15l-6.15,171.52a7.25,7.25,0,0,1-7.13,6.78H148.5a6,6,0,0,1-6.1-6.78l17.79-174.88C156.07,229.07,157.09,216.8,158.63,204.33Z" style="fill:#fff;opacity:0.7000000000000001"></path><path d="M133.27,412.64c-7-.54-10.7-5.33-10.53-10.41.1-2.8-8.86-3.05-8.86-3.05,2,8.68.26,9.92-.18,12.16s-.15,4.72,1.7,4.77c2.22.05,3.23-.37,6-.27,3.23.13,5.4.26,11.13.27C134.81,416.11,136.39,412.88,133.27,412.64Z" style="fill:#019FC6"></path><path d="M81.55,412.83c-4.54-1.54-4.77-6.24-4.17-11.08.36-2.86-8.55-2.31-8.55-2.31-.65,6.91-1.91,7.18-3.11,9.28s-1.26,4.39.47,5c2.07.76,3.22.55,5.91,1,3.16.56,6,1.33,9.85,1.33C84.24,416.11,84.46,413.82,81.55,412.83Z" style="fill:#019FC6"></path><path d="M126.54,260.9s4.33,35.31.33,66c.21,25.92-3.5,76.56-3.5,76.56a19.34,19.34,0,0,1-9.28-.09s-13.77-35.27-10.22-76.91c-13.07-41.74-12.14-64.24-12.14-64.24Z" style="fill:#263238"></path><path d="M112.78,261.4s-7.11,50.66-14.9,74.8C89.69,361.55,78,401,77.68,402.87c-3.63.34-7,.27-9.71-.9,0,0-4.25-44.4,6.22-71.92,2.64-57.46,8.8-67.57,8.8-67.57Z" style="fill:#263238"></path><path d="M93.27,192.76c1.4,4.87,2.88,12.84,1.1,17.17,0,0,6.5.09,16,7.14,4.13-6.56-.2-7.66-.2-7.66-3.89-.76-4.67-5.43-4.8-9.08Z" style="fill:#ffc3bd"></path><path d="M125,221.33c0-5.93-4.11-10.11-11.67-11.46-7-1.25-16.72-1.43-23.14.53s-8.3,5.56-7.09,10.46c5.23,21.15-1,35-.08,41.62,16,1.53,40.09,1.16,43.55-1.58,2.32-3.35-1.07-21.5-2.37-24.14C130.44,232.09,125,224.64,125,221.33Z" style="fill:#019FC6"></path><path d="M110.8,183.65c.15.66.61,1.11,1,1s.66-.7.52-1.35-.6-1.11-1-1S110.66,183,110.8,183.65Z" style="fill:#263238"></path><path d="M111.14,182.38l1.47-.79S112.07,183,111.14,182.38Z" style="fill:#263238"></path><path d="M111.32,184.92a17.7,17.7,0,0,0,3.22,3.67,2.87,2.87,0,0,1-2.23.94Z" style="fill:#ed847e"></path><path d="M111.2,189.42c-2.11,0-3.84-2.93-3.86-6.54a9.5,9.5,0,0,1,1-4.6,3.35,3.35,0,0,1,2.74-2h0c2.1,0,3.83,2.93,3.86,6.54a9.43,9.43,0,0,1-1.06,4.59,3.32,3.32,0,0,1-2.74,2Zm0-12.63h0a2.85,2.85,0,0,0-2.31,1.74,8.93,8.93,0,0,0-1,4.35c0,3.33,1.53,6,3.36,6h0a2.88,2.88,0,0,0,2.31-1.74,8.93,8.93,0,0,0,1-4.35C114.49,179.5,113,176.79,111.15,176.79Z" style="fill:#263238"></path><path d="M111.5,179.63a.4.4,0,0,0,.08-.28.39.39,0,0,0-.44-.34,3.9,3.9,0,0,0-3,1.94.4.4,0,0,0,.71.35,3.05,3.05,0,0,1,2.39-1.51A.41.41,0,0,0,111.5,179.63Z" style="fill:#263238"></path><path d="M89.17,187.17c2.2,7.92,3,11.32,7.83,14.58,7.31,4.91,16.35.49,16.51-7.91.14-7.57-3.49-19.25-11.88-20.78S87,179.26,89.17,187.17Z" style="fill:#ffc3bd"></path><path d="M77.52,213c4.37-5.85,24.28-6.39,39.2-4.07s13.59,17.1,13.91,27.22,3.86,81.36-.68,108.18c-20.65,3.5-53.35,1.5-62.83-1.66,2-9.67,9.37-83.55,9.48-102.66C76.65,230.67,72.91,219.17,77.52,213Z" style="fill:#019FC6"></path><path d="M77.52,213c4.37-5.85,24.28-6.39,39.2-4.07s13.59,17.1,13.91,27.22,3.86,81.36-.68,108.18c-20.65,3.5-53.35,1.5-62.83-1.66,2-9.67,9.37-83.55,9.48-102.66C76.65,230.67,72.91,219.17,77.52,213Z" style="fill:#fff;opacity:0.30000000000000004"></path><path d="M131.05,246.93c-3.43-3.24-6.44-6.42-7.55-8.5-4-7.45,3.09,13.48,8.11,24.15C131.42,256.63,131.22,251.29,131.05,246.93Z" style="fill:#019FC6;opacity:0.5"></path><path d="M155.14,244.75l-.52,4c1.31,4.25,7.45,2.49,7.45,2.49l3.49.19a2.15,2.15,0,0,0,2.33-1.81l.39-2.79a2.58,2.58,0,0,0-2.13-2.78l-3-.58a6.19,6.19,0,0,0-2.61,0Z" style="fill:#ffc3bd"></path><path d="M154.05,245.21c1.7-3,5.5-2.84,8.39-3.44.49-.11,1.4.85.86,1.44a3.9,3.9,0,0,1-2.72,1.43c0,1.09-1.34,3.93-5.07,3.6A4.41,4.41,0,0,1,154.05,245.21Z" style="fill:#ffc3bd"></path><path d="M127.46,216l1.42,2.84,1.53,2.93c1,1.95,2.06,3.89,3.14,5.8s2.19,3.76,3.31,5.59c.56.92,1.14,1.8,1.71,2.68.29.45.58.87.88,1.3l.43.64.22.32.07.11a3.57,3.57,0,0,0,1.43,1.4,11.23,11.23,0,0,0,2.16.57c1,.19,2,.35,3,.49,2.06.3,4.22.5,6.4.67,1.09.07,2.19.16,3.29.22l3.23.15,1.37,12.46c-1.34.3-2.49.52-3.74.73s-2.45.41-3.69.56c-2.47.32-5,.53-7.58.61-1.29,0-2.61,0-4,0-.67,0-1.37-.07-2.07-.13a18,18,0,0,1-2.66-.4,20,20,0,0,1-10.25-5.92l-.82-.93-.63-.73c-.43-.49-.86-1-1.26-1.48-.83-1-1.6-2-2.37-3-1.53-2-3-4-4.33-6.11s-2.7-4.14-4-6.26c-.61-1.06-1.23-2.13-1.83-3.2s-1.15-2.13-1.78-3.38Z" style="fill:#019FC6"></path><g style="opacity:0.30000000000000004"><path d="M127.46,216l1.42,2.84,1.53,2.93c1,1.95,2.06,3.89,3.14,5.8s2.19,3.76,3.31,5.59c.56.92,1.14,1.8,1.71,2.68.29.45.58.87.88,1.3l.43.64.22.32.07.11a3.57,3.57,0,0,0,1.43,1.4,11.23,11.23,0,0,0,2.16.57c1,.19,2,.35,3,.49,2.06.3,4.22.5,6.4.67,1.09.07,2.19.16,3.29.22l3.23.15,1.37,12.46c-1.34.3-2.49.52-3.74.73s-2.45.41-3.69.56c-2.47.32-5,.53-7.58.61-1.29,0-2.61,0-4,0-.67,0-1.37-.07-2.07-.13a18,18,0,0,1-2.66-.4,20,20,0,0,1-10.25-5.92l-.82-.93-.63-.73c-.43-.49-.86-1-1.26-1.48-.83-1-1.6-2-2.37-3-1.53-2-3-4-4.33-6.11s-2.7-4.14-4-6.26c-.61-1.06-1.23-2.13-1.83-3.2s-1.15-2.13-1.78-3.38Z" style="fill:#fff"></path></g><path d="M101.38,261.25s-13.85-.94-17.89-2.89C88.36,261.6,95,262,101.38,261.25Z" style="fill:#019FC6;opacity:0.5"></path><path d="M99.82,262.56s-10.2.52-13.39-.55C90.39,263.94,95.31,263.68,99.82,262.56Z" style="fill:#019FC6;opacity:0.5"></path><path d="M102,169.56c-15.89-6.89-30-.71-24.78,10.7s-6.78,13.61-9,26.52,2.82,22.33,16,26.44c16.93,5.28,32.51,2.89,31.55-13s-10.3-26.65-7.65-34.32S112.85,167,102,169.56Z" style="fill:#263238"></path><path d="M106.38,186.17l-.08,0a.25.25,0,0,1-.15-.32c.55-1.51,7.69-3.75,8.5-4a.25.25,0,0,1,.31.17.25.25,0,0,1-.16.31c-3,.92-7.83,2.74-8.18,3.7A.27.27,0,0,1,106.38,186.17Z" style="fill:#263238"></path><path d="M104.8,189.75A5.35,5.35,0,0,0,108,193c1.82.53,2.73-1.78,2.22-4.08-.46-2.07-2-4.85-3.79-4.34S104,187.73,104.8,189.75Z" style="fill:#ffc3bd"></path></g><g id="freepik--character-2--inject-21"><path d="M352,410.78a31.79,31.79,0,0,0,5-4.22H301.23L298.53,356h67.14v-4.22H298.3l-2.71-50.58h70.08V297h-70.3l-2.71-50.58h73v-4.22H292.44l-2.71-50.58h41.49v-4.22H289.5l-2.27-42.52h-6.67l14.52,271.39h6.67l-.29-5.45Z" style="fill:#263238;opacity:0.1"></path><path d="M365.24,119.46l1.72,10H289l-1.72-10h-6.67L331.7,417.68h6.67l-1.72-10h78l1.72,10H423L371.91,119.46Zm2.44,14.22,8.67,50.58h-78l-8.67-50.58ZM317.14,293.86l-8.67-50.58h78l8.67,50.58Zm78.72,4.22,8.67,50.58h-78l-8.67-50.58Zm-88.12-59-8.67-50.58h78l8.67,50.58Zm28.19,164.4-8.67-50.58h78l8.67,50.58Z" style="fill:#263238"></path><path d="M361.54,121.1a7.93,7.93,0,0,1,3.46-3.93,7.35,7.35,0,0,0-.32-5l18-7.56c-.94,6.25-1.67,11.19.87,14-3.44,2.55-9.74,7.13-17,7.58S360.59,123.77,361.54,121.1Z" style="fill:#b55b52"></path><path d="M360.66,96l.11,6.08s-2.31.57-3.7-.45A12.67,12.67,0,0,1,360.66,96Z" style="fill:#a02724"></path><path d="M360.76,95.16c-.07.72-.51,1.26-1,1.21s-.79-.67-.73-1.39.51-1.27,1-1.22S360.83,94.44,360.76,95.16Z" style="fill:#263238"></path><path d="M360,89.49a.41.41,0,0,0,.25.31,3.3,3.3,0,0,1,2.07,2.25.42.42,0,0,0,.5.33.42.42,0,0,0,.33-.5A4.15,4.15,0,0,0,360.55,89a.43.43,0,0,0-.57.49Z" style="fill:#263238"></path><path d="M385.39,94.92c-1.38,8.79-2.51,14.73-8,18-10.9,6.46-16.57,1.06-17.85-8-1.15-8.15,1.3-21.16,10.3-23.78A12.27,12.27,0,0,1,385.39,94.92Z" style="fill:#b55b52"></path><path d="M366.65,98.91c-4-.88-5.21-5.25-2.74-6.9-1.64-3.56-4-4.19-3.94-8.4s4.43-9.25,13.5-8.45c-1.25.7-2.54,1.33-2.54,1.33s7-1.17,12.68,2.14,8.87,1.28,8.87,1.28a3.25,3.25,0,0,1-1.91,2.75c1.45.75,4.91,7.66-.42,13.58s-7.15,9.85-5.29,12.22c-2.67,2.82-9,2.65-13.14.39S366.65,98.91,366.65,98.91Z" style="fill:#263238"></path><path d="M371.55,97.9a7.3,7.3,0,0,1-3.64,4.27c-2.3,1.16-4-.79-3.76-3.22.2-2.18,1.63-5.42,4.15-5.56A3.32,3.32,0,0,1,371.55,97.9Z" style="fill:#b55b52"></path><polygon points="358.88 327.58 372.44 327.71 371.93 343.7 360.6 343.61 358.88 327.58" style="fill:#b55b52"></polygon><polygon points="358.89 327.58 372.44 327.71 372.15 336.67 359.85 336.56 358.89 327.58" style="opacity:0.2"></polygon><path d="M373.27,263.88c4.73-21,12.56-43.26,4.31-62.14L339.92,205s3.73,44.78,4.74,63.71c1,19.67,13.81,65.07,13.81,65.07l15.51,0S376.39,285.66,373.27,263.88Z" style="fill:#019FC6"></path><path d="M374.09,348.65h-3.57l-.87-1.2-1.48,1.21h-20a7.74,7.74,0,0,1,.54-4.07s6.93-1.13,9.62-3a2,2,0,0,1,1.58-.32c2.42.46,8.82,1.5,12.28.15a.61.61,0,0,1,.77.53A43.77,43.77,0,0,0,374.09,348.65Z" style="fill:#263238"></path><polygon points="416.93 310.48 429.49 305.36 436.21 319.89 425.72 324.18 416.93 310.48" style="fill:#b55b52"></polygon><polygon points="416.93 310.48 429.5 305.37 433.26 313.5 421.86 318.15 416.93 310.48" style="opacity:0.2"></polygon><path d="M415.63,260.05c-.76-20.54-2-51.26-9.74-60l-42.15,2.87s15.75,43.69,21.82,62.16c6.31,19.19,33.84,51.16,33.84,51.16l13.54-5.62S423.23,282.88,415.63,260.05Z" style="fill:#019FC6"></path><path d="M355.44,119.47a170,170,0,0,1,37.57-2.8,12.71,12.71,0,0,1,11.91,14.12c-3.18,29.91,2.9,65.07,2.83,70.93,0,0-54.93,22.61-69.62,5.48-7.1-35.64,3.11-66.69,7.88-79.67A12.65,12.65,0,0,1,355.44,119.47Z" style="fill:#019FC6"></path><path d="M373.27,263.88c.4,2.74.7,5.9.93,9.33a166,166,0,0,1-28.87,2.36c-.33-2.5-.56-4.8-.67-6.83-.15-2.82-.36-6.21-.61-9.94a258.81,258.81,0,0,0,30.48-.28Q373.87,261.21,373.27,263.88Z" style="fill:#263238;opacity:0.1"></path><path d="M416,261.13c-6.95,3.32-16.94,6.71-28.25,9.37a52.24,52.24,0,0,1-2.19-5.46c-.69-2.1-1.51-4.54-2.41-7.19a306.84,306.84,0,0,0,32.21-4.64c.1,2.37.19,4.66.27,6.84Z" style="fill:#263238;opacity:0.1"></path><path d="M418.53,253.66c-8,8-41.23,17.9-67.21,13.88a59.71,59.71,0,0,1-3.63-10.38,43.43,43.43,0,0,0-.8,9.53,51.69,51.69,0,0,1-7.8-2.4c-1.77-13.58-6.35-66.59-4.28-94.94s11.44-46.21,13.36-47.54,14.73-5,29.45-6.07c13.45-1,25.44,2.29,27.77,6.29,3.83,6,.88,50.28,2.36,64S417.35,232.11,418.53,253.66Z" style="fill:#019FC6"></path><path d="M418.53,253.66c-8,8-41.23,17.9-67.21,13.88a59.71,59.71,0,0,1-3.63-10.38,43.43,43.43,0,0,0-.8,9.53,51.69,51.69,0,0,1-7.8-2.4c-1.77-13.58-6.35-66.59-4.28-94.94s11.44-46.21,13.36-47.54,14.73-5,29.45-6.07c13.45-1,25.44,2.29,27.77,6.29,3.83,6,.88,50.28,2.36,64S417.35,232.11,418.53,253.66Z" style="fill:#fff;opacity:0.30000000000000004"></path><path d="M440.53,320.67l-2.23,1.93-1.39-.39-.38,1.93-13.45,11.63A7.89,7.89,0,0,1,421,332.2s3.7-3.85,3.52-7.19a.65.65,0,0,1,.32-.63c1.58-.88,7.78-4.48,9.8-8.06a.63.63,0,0,1,1-.13A43.38,43.38,0,0,0,440.53,320.67Z" style="fill:#263238"></path><path d="M298.81,160.3l.24,5.71c-1.88,5.69-8.78,2-8.78,2l-4-.44a3,3,0,0,1-2.51-3l-.2-4a3.15,3.15,0,0,1,2.7-3.48l3.53-.2a6.27,6.27,0,0,1,3,.57Z" style="fill:#b55b52"></path><path d="M300,161.16c-1.68-4.61-6.07-5.07-9.34-6.5-.56-.24-1.69.91-1.11,1.85a5,5,0,0,0,3,2.55c-.09,1.53,1.19,5.78,5.51,6.05A6.19,6.19,0,0,0,300,161.16Z" style="fill:#b55b52"></path><path d="M338,147.73a141.07,141.07,0,0,0-3.23,21.62q-.1,1.41-.18,2.91c7.06-6.44,11.72-16.39,11.73-22.6C346.36,146.64,342.29,145.76,338,147.73Z" style="fill:#019FC6;opacity:0.5"></path><path d="M379.77,186s16.61-1.36,21.45-4.22C395.38,186.53,387.38,187.16,379.77,186Z" style="fill:#019FC6;opacity:0.5"></path><path d="M381.65,187.94s12.23.76,16.05-.81C393,190,387.06,189.58,381.65,187.94Z" style="fill:#019FC6;opacity:0.5"></path><path d="M364.05,137.24c-2.27,2.44-4.57,4.76-6.87,7.13s-4.67,4.65-7,7c-4.69,4.64-9.5,9.17-14.5,13.68l-2.06,1.85-1.82.51a62.44,62.44,0,0,1-9.5,1.7c-3,.35-5.85.55-8.71.7s-5.71.23-8.55.24-5.64,0-8.55-.17l-1-14.34,8-1.62c2.65-.53,5.3-1.07,7.91-1.63s5.19-1.15,7.67-1.76a54.34,54.34,0,0,0,6.64-2l-3.89,2.36,13-14.32,6.53-7.23c2.2-2.39,4.39-4.82,6.59-7.17Z" style="fill:#019FC6"></path><g style="opacity:0.30000000000000004"><path d="M364.05,137.24c-2.27,2.44-4.57,4.76-6.87,7.13s-4.67,4.65-7,7c-4.69,4.64-9.5,9.17-14.5,13.68l-2.06,1.85-1.82.51a62.44,62.44,0,0,1-9.5,1.7c-3,.35-5.85.55-8.71.7s-5.71.23-8.55.24-5.64,0-8.55-.17l-1-14.34,8-1.62c2.65-.53,5.3-1.07,7.91-1.63s5.19-1.15,7.67-1.76a54.34,54.34,0,0,0,6.64-2l-3.89,2.36,13-14.32,6.53-7.23c2.2-2.39,4.39-4.82,6.59-7.17Z" style="fill:#fff"></path></g></g></svg>